<svg width="40" height="40" viewBox="0 0 40 40" fill="none" xmlns="http://www.w3.org/2000/svg">
<g clip-path="url(#clip0)">
<path d="M34.1665 25.833C33.4765 25.833 32.9165 25.273 32.9165 24.583V22.083C32.9165 21.393 33.4765 20.833 34.1665 20.833C34.8565 20.833 35.4165 21.393 35.4165 22.083V24.583C35.4165 25.273 34.8565 25.833 34.1665 25.833Z" fill="black"/>
<path d="M34.7917 23.3337H31.25C30.56 23.3337 30 22.7737 30 22.0837C30 21.3937 30.56 20.8337 31.25 20.8337H34.7917C35.3667 20.8337 35.8333 20.367 35.8333 19.792C35.8333 19.217 35.3667 18.7503 34.7917 18.7503H33.5417C31.5883 18.7503 30 17.162 30 15.2087C30 13.2553 31.5883 11.667 33.5417 11.667H37.0833C37.7733 11.667 38.3333 12.227 38.3333 12.917C38.3333 13.607 37.7733 14.167 37.0833 14.167H33.5417C32.9667 14.167 32.5 14.6337 32.5 15.2087C32.5 15.7837 32.9667 16.2503 33.5417 16.2503H34.7917C36.745 16.2503 38.3333 17.8387 38.3333 19.792C38.3333 21.7453 36.745 23.3337 34.7917 23.3337Z" fill="black"/>
<path d="M34.1665 14.167C33.4765 14.167 32.9165 13.607 32.9165 12.917V10.417C32.9165 9.72699 33.4765 9.16699 34.1665 9.16699C34.8565 9.16699 35.4165 9.72699 35.4165 10.417V12.917C35.4165 13.607 34.8565 14.167 34.1665 14.167Z" fill="black"/>
<path d="M6.66683 16.6667C8.50778 16.6667 10.0002 15.1743 10.0002 13.3333C10.0002 11.4924 8.50778 10 6.66683 10C4.82588 10 3.3335 11.4924 3.3335 13.3333C3.3335 15.1743 4.82588 16.6667 6.66683 16.6667Z" fill="black"/>
<path d="M8.75 18.333H4.58333C2.055 18.333 0 20.388 0 22.9163V23.7497C0 24.4397 0.56 24.9997 1.25 24.9997H12.0833C12.7733 24.9997 13.3333 24.4397 13.3333 23.7497V22.9163C13.3333 20.388 11.2783 18.333 8.75 18.333Z" fill="black"/>
<path d="M21.09 28.1367C20.6467 27.3483 19.3534 27.3483 18.91 28.1367L15.16 34.8033C14.9434 35.19 14.9467 35.6633 15.17 36.0467C15.395 36.43 15.805 36.6667 16.25 36.6667H23.75C24.195 36.6667 24.605 36.43 24.8284 36.0467C25.0517 35.6633 25.0567 35.19 24.8384 34.8033L21.09 28.1367Z" fill="black"/>
<path d="M38.75 29.167H1.25C0.56 29.167 0 28.607 0 27.917C0 27.227 0.56 26.667 1.25 26.667H38.75C39.44 26.667 40 27.227 40 27.917C40 28.607 39.44 29.167 38.75 29.167Z" fill="black"/>
</g>
<defs>
<clipPath id="clip0">
<rect width="40" height="40" fill="white"/>
</clipPath>
</defs>
</svg>
