<svg width="69" height="57" viewBox="0 0 69 57" fill="none" xmlns="http://www.w3.org/2000/svg">
<path d="M29.9996 10.6373L29.218 15.1265C29.1922 15.2752 29.2084 15.428 29.265 15.5679C29.3215 15.7078 29.416 15.829 29.5378 15.918C29.6597 16.0069 29.804 16.0601 29.9544 16.0713C30.1048 16.0825 30.2554 16.0515 30.3891 15.9816L34.4274 13.871L38.4554 16.0012C38.5887 16.0716 38.7391 16.1034 38.8895 16.0929C39.04 16.0824 39.1845 16.0301 39.3068 15.9418C39.429 15.8534 39.5242 15.7327 39.5814 15.5932C39.6386 15.4536 39.6557 15.3009 39.6307 15.1521L38.8713 10.6593L42.1418 7.48666C42.25 7.38161 42.3268 7.24836 42.3633 7.10197C42.3998 6.95559 42.3946 6.80191 42.3484 6.65831C42.3021 6.51471 42.2166 6.38691 42.1015 6.28938C41.9864 6.19185 41.8463 6.12846 41.697 6.10639L37.1899 5.43984L35.1833 1.34889C35.1168 1.21345 35.0138 1.09931 34.8859 1.01936C34.7579 0.939413 34.6102 0.89685 34.4593 0.896484H34.4573C34.3067 0.896489 34.1592 0.938525 34.0312 1.01786C33.9033 1.09719 33.8 1.21067 33.7331 1.34552L31.7067 5.4265L27.1957 6.07081C27.0463 6.09215 26.9059 6.15485 26.7904 6.25182C26.6748 6.34879 26.5886 6.47617 26.5416 6.61955C26.4947 6.76293 26.4888 6.91659 26.5246 7.06316C26.5604 7.20972 26.6365 7.34335 26.7442 7.44892L29.9996 10.6373ZM32.3562 6.96741C32.486 6.94887 32.6093 6.89904 32.7156 6.82222C32.8218 6.74541 32.9078 6.6439 32.9661 6.52645L34.453 3.5321L35.9253 6.53319C35.983 6.65088 36.0685 6.75276 36.1743 6.83007C36.2802 6.90738 36.4033 6.9578 36.5329 6.97698L39.8404 7.46564L37.4406 9.79452C37.3465 9.88581 37.276 9.99862 37.2352 10.1232C37.1944 10.2478 37.1845 10.3805 37.2064 10.5097L37.7636 13.8062L34.8081 12.2429C34.6922 12.1817 34.5631 12.1495 34.432 12.1492C34.3009 12.1489 34.1717 12.1805 34.0555 12.2412L31.0926 13.7896L31.6657 10.4958C31.6882 10.3667 31.6789 10.234 31.6387 10.1093C31.5985 9.98452 31.5285 9.87142 31.4349 9.7797L29.0466 7.44017L32.3562 6.96741Z" fill="#284268"/>
<path d="M51.0079 13.6012L50.3215 17.5451C50.2957 17.6938 50.3119 17.8467 50.3684 17.9866C50.4249 18.1264 50.5194 18.2477 50.6413 18.3367C50.7631 18.4257 50.9074 18.4788 51.0579 18.49C51.2083 18.5013 51.3589 18.4702 51.4926 18.4004L55.0405 16.5461L58.5792 18.4175C58.7125 18.488 58.8629 18.5197 59.0133 18.5093C59.1638 18.4988 59.3083 18.4464 59.4306 18.3581C59.5528 18.2698 59.6479 18.149 59.7052 18.0095C59.7624 17.8699 59.7795 17.7172 59.7544 17.5684L59.0874 13.6214L61.9606 10.8341C62.0688 10.729 62.1456 10.5958 62.1821 10.4494C62.2186 10.303 62.2134 10.1493 62.1672 10.0057C62.1209 9.86212 62.0354 9.73433 61.9203 9.6368C61.8052 9.53926 61.6651 9.47588 61.5158 9.4538L57.5559 8.86865L55.793 5.27418C55.7265 5.13873 55.6235 5.02457 55.4955 4.94462C55.3676 4.86467 55.2198 4.82212 55.0689 4.82178H55.067C54.9165 4.82178 54.7689 4.86382 54.641 4.94315C54.513 5.02249 54.4097 5.13597 54.3428 5.27082L52.5625 8.85558L48.5998 9.4216C48.4504 9.44293 48.31 9.50562 48.1944 9.60258C48.0789 9.69953 47.9927 9.82689 47.9457 9.97024C47.8987 10.1136 47.8928 10.2672 47.9286 10.4138C47.9644 10.5604 48.0404 10.694 48.1482 10.7996L51.0079 13.6012ZM53.2118 10.3969C53.3416 10.3784 53.465 10.3285 53.5712 10.2517C53.6775 10.1749 53.7635 10.0734 53.8218 9.95594L55.0624 7.45739L56.2911 9.96201C56.3488 10.0797 56.4343 10.1816 56.5402 10.2589C56.646 10.3362 56.7691 10.3866 56.8988 10.4058L59.6585 10.8136L57.6561 12.7561C57.5621 12.8474 57.4916 12.9602 57.4508 13.0847C57.41 13.2093 57.4001 13.3419 57.4219 13.4712L57.8869 16.222L55.4206 14.9179C55.3048 14.8565 55.1757 14.8243 55.0446 14.8239C54.9135 14.8236 54.7843 14.8552 54.6681 14.916L52.1957 16.2081L52.674 13.4589C52.6964 13.3298 52.6872 13.1971 52.6469 13.0723C52.6067 12.9476 52.5368 12.8345 52.4431 12.7428L50.4502 10.7916L53.2118 10.3969Z" fill="#284268"/>
<path d="M9.78598 13.6012L9.09975 17.5451C9.07388 17.6938 9.09012 17.8467 9.14663 17.9866C9.20314 18.1265 9.29767 18.2478 9.41954 18.3368C9.5414 18.4258 9.68572 18.4789 9.8362 18.4901C9.98667 18.5014 10.1373 18.4703 10.271 18.4004L13.8187 16.5461L17.3578 18.4175C17.4911 18.488 17.6415 18.5198 17.792 18.5093C17.9425 18.4989 18.087 18.4465 18.2093 18.3582C18.3316 18.2699 18.4267 18.1491 18.484 18.0095C18.5412 17.87 18.5583 17.7172 18.5332 17.5684L17.866 13.6214L20.7392 10.8341C20.8475 10.729 20.9242 10.5958 20.9607 10.4494C20.9972 10.303 20.9921 10.1493 20.9458 10.0057C20.8995 9.86212 20.814 9.73433 20.6989 9.6368C20.5838 9.53926 20.4437 9.47588 20.2945 9.4538L16.3336 8.86811L14.571 5.27418C14.5045 5.13875 14.4015 5.0246 14.2736 4.94465C14.1456 4.86471 13.9979 4.82214 13.847 4.82178H13.845C13.6944 4.82178 13.5469 4.86382 13.4189 4.94315C13.291 5.02249 13.1877 5.13597 13.1208 5.27082L11.3405 8.85558L7.37772 9.4216C7.22838 9.44295 7.088 9.50566 6.97244 9.60262C6.85688 9.69958 6.77075 9.82694 6.72378 9.97029C6.67682 10.1136 6.67089 10.2673 6.70667 10.4138C6.74245 10.5604 6.81851 10.694 6.92625 10.7996L9.78598 13.6012ZM11.9901 10.3969C12.12 10.3785 12.2434 10.3287 12.3498 10.2519C12.4561 10.1751 12.5422 10.0736 12.6006 9.95608L13.8413 7.45752L15.0699 9.96214C15.1276 10.0798 15.2131 10.1817 15.319 10.2591C15.4249 10.3364 15.548 10.3868 15.6777 10.4059L18.4374 10.8137L16.435 12.7562C16.3409 12.8475 16.2704 12.9603 16.2296 13.0848C16.1888 13.2094 16.1789 13.342 16.2007 13.4713L16.6656 16.2221L14.1994 14.918C14.0836 14.8566 13.9545 14.8244 13.8234 14.8241C13.6923 14.8238 13.5631 14.8553 13.4469 14.9161L10.9739 16.2081L11.4521 13.4589C11.4745 13.3298 11.4653 13.1971 11.4251 13.0724C11.3849 12.9476 11.315 12.8345 11.2214 12.7428L9.22845 10.7916L11.9901 10.3969Z" fill="#284268"/>
<path d="M34.5 19.2207C32.7811 19.2227 31.1331 19.9064 29.9177 21.1219C28.7022 22.3374 28.0185 23.9853 28.0166 25.7043V29.4876C28.0166 31.2071 28.6997 32.8562 29.9156 34.072C31.1314 35.2879 32.7805 35.971 34.5 35.971C36.2196 35.971 37.8686 35.2879 39.0845 34.072C40.3004 32.8562 40.9835 31.2071 40.9835 29.4876V25.7043C40.9816 23.9853 40.2979 22.3374 39.0824 21.1219C37.867 19.9064 36.219 19.2227 34.5 19.2207ZM39.3663 29.4876C39.3663 30.7782 38.8536 32.0159 37.941 32.9285C37.0284 33.8411 35.7907 34.3538 34.5 34.3538C33.2094 34.3538 31.9717 33.8411 31.0591 32.9285C30.1465 32.0159 29.6338 30.7782 29.6338 29.4876V25.7043C29.6338 24.4137 30.1465 23.1759 31.0591 22.2633C31.9717 21.3507 33.2094 20.838 34.5 20.838C35.7907 20.838 37.0284 21.3507 37.941 22.2633C38.8536 23.1759 39.3663 24.4137 39.3663 25.7043V29.4876Z" fill="#284268"/>
<path d="M54.6204 22.4272C53.0382 22.429 51.5214 23.0583 50.4027 24.1771C49.2839 25.2958 48.6546 26.8127 48.6528 28.3948V31.834C48.6528 33.4167 49.2816 34.9346 50.4007 36.0537C51.5198 37.1728 53.0377 37.8016 54.6204 37.8016C56.2031 37.8016 57.721 37.1728 58.8401 36.0537C59.9592 34.9346 60.5879 33.4167 60.5879 31.834V28.3948C60.5862 26.8127 59.9569 25.2958 58.8381 24.1771C57.7194 23.0583 56.2025 22.429 54.6204 22.4272ZM58.9708 31.8339C58.9708 32.9877 58.5124 34.0942 57.6966 34.9101C56.8807 35.7259 55.7742 36.1842 54.6204 36.1842C53.4666 36.1842 52.3601 35.7259 51.5442 34.9101C50.7284 34.0942 50.27 32.9877 50.27 31.8339V28.3947C50.27 27.2409 50.7284 26.1343 51.5442 25.3185C52.3601 24.5026 53.4666 24.0443 54.6204 24.0443C55.7742 24.0443 56.8807 24.5026 57.6966 25.3185C58.5124 26.1343 58.9708 27.2409 58.9708 28.3947V31.8339Z" fill="#284268"/>
<path d="M61.4988 39.0093H59.3246C59.1299 39.0091 58.9431 38.9316 58.8054 38.7939C58.6676 38.6562 58.5901 38.4695 58.5899 38.2747C58.5898 38.0843 58.5226 37.9001 58.4 37.7544C58.2775 37.6087 58.1074 37.5109 57.9199 37.4783C57.7323 37.4457 57.5392 37.4803 57.3747 37.576C57.2101 37.6717 57.0846 37.8225 57.0203 38.0017L56.1556 40.4107C56.0424 40.7263 55.8339 40.999 55.5591 41.191C55.2843 41.383 54.9566 41.485 54.6213 41.4829C54.286 41.4807 53.9597 41.3745 53.6873 41.1789C53.415 40.9834 53.2101 40.7081 53.1009 40.3911L52.2741 37.9922C52.2294 37.8626 52.1525 37.7464 52.0505 37.6547C51.9486 37.563 51.825 37.4987 51.6914 37.4679C51.5578 37.4371 51.4185 37.4407 51.2867 37.4785C51.1549 37.5163 51.0349 37.5871 50.9379 37.684L50.9184 37.7034C50.7668 37.8551 50.6816 38.0607 50.6816 38.2751C50.6813 38.4699 50.6038 38.6566 50.4661 38.7943C50.3284 38.932 50.1416 39.0095 49.9468 39.0097H47.7414C47.3923 39.0098 47.0438 39.0364 46.6987 39.0892C45.3851 38.0349 43.7509 37.4608 42.0666 37.4619H39.675C39.4391 37.4619 39.2129 37.3682 39.0461 37.2014C38.8793 37.0346 38.7855 36.8084 38.7855 36.5725C38.7855 36.3821 38.7183 36.1978 38.5957 36.0521C38.4731 35.9065 38.3031 35.8087 38.1155 35.7761C37.928 35.7434 37.7349 35.778 37.5703 35.8738C37.4058 35.9695 37.2803 36.1203 37.2159 36.2994L36.2654 38.9496C36.1352 39.3125 35.8955 39.626 35.5794 39.8468C35.2634 40.0676 34.8866 40.1849 34.5011 40.1824C34.1155 40.18 33.7403 40.0579 33.4271 39.833C33.1139 39.6082 32.8782 39.2916 32.7526 38.9271L31.8431 36.2877C31.7984 36.158 31.7214 36.0418 31.6194 35.95C31.5173 35.8583 31.3937 35.794 31.2599 35.7633C31.1262 35.7325 30.9869 35.7363 30.855 35.7742C30.7232 35.8122 30.6031 35.883 30.5062 35.9802L30.4848 36.0016C30.3336 36.1532 30.2487 36.3585 30.2487 36.5726C30.2487 36.8085 30.155 37.0347 29.9882 37.2016C29.8214 37.3684 29.5951 37.4621 29.3592 37.4621H26.9334C25.2487 37.4609 23.6142 38.0352 22.3005 39.0899C21.9557 39.0368 21.6074 39.01 21.2586 39.0097H19.0844C18.8897 39.0095 18.7029 38.932 18.5652 38.7943C18.4274 38.6566 18.3499 38.4699 18.3497 38.2751C18.3496 38.0847 18.2824 37.9005 18.1598 37.7548C18.0373 37.6091 17.8672 37.5113 17.6797 37.4787C17.4921 37.4461 17.299 37.4807 17.1345 37.5764C16.9699 37.6722 16.8444 37.8229 16.7801 38.0021L15.9158 40.4107C15.8025 40.7263 15.5941 40.9989 15.3192 41.1909C15.0444 41.383 14.7167 41.485 14.3814 41.4828C14.0461 41.4806 13.7198 41.3744 13.4474 41.1789C13.1751 40.9833 12.9702 40.7081 12.861 40.3911L12.0342 37.9922C11.9895 37.8626 11.9125 37.7464 11.8106 37.6546C11.7086 37.5629 11.585 37.4986 11.4513 37.4678C11.3177 37.4369 11.1784 37.4406 11.0465 37.4785C10.9147 37.5164 10.7946 37.5871 10.6977 37.6842L10.6783 37.7036C10.5268 37.8552 10.4417 38.0608 10.4416 38.2751C10.4414 38.4699 10.364 38.6566 10.2262 38.7943C10.0885 38.932 9.9018 39.0095 9.70703 39.0097H7.50132C5.69126 39.0118 3.95593 39.7317 2.67598 41.0116C1.39604 42.2915 0.676004 44.0267 0.673828 45.8368V55.2949C0.673828 55.5094 0.759019 55.7151 0.91066 55.8667C1.0623 56.0183 1.26797 56.1035 1.48242 56.1035H67.5176C67.732 56.1035 67.9377 56.0183 68.0893 55.8667C68.241 55.7151 68.3262 55.5094 68.3262 55.2949V45.8368C68.3241 44.0267 67.6042 42.2913 66.3242 41.0113C65.0443 39.7314 63.3089 39.0114 61.4988 39.0093ZM19.5042 44.891V54.4863H2.29102V45.8368C2.29259 44.4554 2.84203 43.1311 3.81881 42.1543C4.7956 41.1775 6.11995 40.6281 7.50132 40.6265H9.70676C10.1993 40.6272 10.6794 40.4724 11.0788 40.1842L11.3318 40.9185C11.5501 41.5521 11.9598 42.1022 12.5042 42.493C13.0486 42.8838 13.7008 43.096 14.3709 43.1002C15.041 43.1045 15.696 42.9006 16.2453 42.5168C16.7946 42.133 17.2112 41.5881 17.4376 40.9573L17.7145 40.1858C18.0924 40.4579 18.5429 40.6112 19.0083 40.6258C19.023 40.6258 19.0379 40.6269 19.0529 40.6269H20.8552C19.975 41.8745 19.503 43.3642 19.5042 44.891ZM47.8786 54.4863H21.1214V44.891C21.1232 43.3501 21.7361 41.8729 22.8257 40.7833C23.9153 39.6937 25.3926 39.0809 26.9334 39.0791H29.3592C29.9217 39.0798 30.4678 38.8903 30.909 38.5415L31.2234 39.4543C31.4582 40.1354 31.8985 40.7269 32.4837 41.147C33.069 41.5672 33.7702 41.7953 34.4906 41.7999C35.211 41.8045 35.9151 41.5853 36.5056 41.1726C37.0961 40.76 37.544 40.1742 37.7873 39.4961L38.129 38.5441C38.548 38.8742 39.0618 39.0613 39.5949 39.0778C39.61 39.0787 39.6253 39.0791 39.6405 39.0791H42.0663C43.6072 39.0809 45.0845 39.6938 46.1741 40.7834C47.2637 41.873 47.8766 43.3504 47.8783 44.8913L47.8786 54.4863ZM66.709 54.4863H49.4958V44.891C49.497 43.364 49.0249 41.8741 48.1445 40.6265H49.9468C50.4393 40.6272 50.9194 40.4724 51.3187 40.1842L51.5717 40.9185C51.7901 41.5521 52.1997 42.1022 52.7441 42.493C53.2885 42.8838 53.9408 43.096 54.6109 43.1002C55.281 43.1045 55.9359 42.9006 56.4852 42.5168C57.0345 42.133 57.4511 41.5881 57.6775 40.9573L57.9545 40.1858C58.3323 40.4579 58.7828 40.6112 59.2482 40.6258C59.2629 40.6258 59.2779 40.6269 59.2927 40.6269H61.4983C62.8797 40.6284 64.204 41.1777 65.1809 42.1544C66.1578 43.1311 66.7073 44.4554 66.709 45.8368V54.4863Z" fill="#284268"/>
<path d="M8.41211 28.3948V31.834C8.41211 32.6177 8.56646 33.3937 8.86636 34.1177C9.16626 34.8417 9.60583 35.4996 10.16 36.0537C10.7141 36.6079 11.372 37.0474 12.096 37.3473C12.82 37.6472 13.596 37.8016 14.3797 37.8016C15.1633 37.8016 15.9393 37.6472 16.6634 37.3473C17.3874 37.0474 18.0452 36.6079 18.5994 36.0537C19.1535 35.4996 19.5931 34.8417 19.893 34.1177C20.1929 33.3937 20.3472 32.6177 20.3472 31.834V28.3948C20.3472 26.8121 19.7185 25.2942 18.5994 24.1751C17.4802 23.056 15.9624 22.4272 14.3797 22.4272C12.797 22.4272 11.2791 23.056 10.16 24.1751C9.04083 25.2942 8.41211 26.8121 8.41211 28.3948ZM18.73 28.3948V31.834C18.73 32.9878 18.2717 34.0943 17.4558 34.9102C16.64 35.726 15.5335 36.1844 14.3797 36.1844C13.2259 36.1844 12.1193 35.726 11.3035 34.9102C10.4876 34.0943 10.0293 32.9878 10.0293 31.834V28.3948C10.0293 27.241 10.4876 26.1345 11.3035 25.3186C12.1193 24.5028 13.2259 24.0444 14.3797 24.0444C15.5335 24.0444 16.64 24.5028 17.4558 25.3186C18.2717 26.1345 18.73 27.241 18.73 28.3948Z" fill="#284268"/>
</svg>
