<svg width="69" height="61" viewBox="0 0 69 61" fill="none" xmlns="http://www.w3.org/2000/svg">
<path d="M64.3999 5.91512C67.2479 6.28105 69.279 8.8592 68.9684 11.7138L64.9271 47.4721C64.6163 50.318 62.0571 52.3732 59.2113 52.0622C59.1543 52.056 59.0974 52.0488 59.0406 52.0407H58.7771V19.2695C58.7771 16.3582 56.4169 13.998 53.5056 13.998H9.57642L10.5429 5.21219C10.9093 2.31587 13.5265 0.245407 16.4293 0.555673L64.3999 5.91512Z" fill="#00ACEA"/>
<path d="M58.777 52.0407V55.2035C58.777 58.1148 56.4168 60.475 53.5055 60.475H5.2715C2.36021 60.475 0 58.1148 0 55.2035V47.8234L14.4966 37.2804C16.7951 35.5365 20.0114 35.6843 22.1402 37.6319L31.8046 46.0662C33.8303 47.784 36.7214 48.0309 39.0089 46.6812L58.777 35.084V52.0407Z" fill="#00CEB4"/>
<path d="M58.777 19.2695V35.084L39.0089 46.6813C36.7214 48.031 33.8303 47.7841 31.8046 46.0663L22.1402 37.6319C20.0114 35.6845 16.7951 35.5366 14.4966 37.2804L0 47.8234V19.2695C0 16.3583 2.36021 13.998 5.2715 13.998H53.5055C56.417 13.9982 58.777 16.3583 58.777 19.2695Z" fill="#00EFD1"/>
<path d="M35.1432 34.0301C38.2487 34.0301 40.7662 31.5126 40.7662 28.4071C40.7662 25.3017 38.2487 22.7842 35.1432 22.7842C32.0377 22.7842 29.5203 25.3017 29.5203 28.4071C29.5203 31.5126 32.0377 34.0301 35.1432 34.0301Z" fill="#D4E1F4"/>
</svg>
