<svg width="65" height="55" viewBox="0 0 65 55" fill="none" xmlns="http://www.w3.org/2000/svg">
<path d="M56.2188 24.2656H55.1406V13.4844C55.1406 9.90554 52.6993 6.59192 48.2665 4.15388C44.0374 1.82782 38.438 0.546875 32.5 0.546875C26.562 0.546875 20.9626 1.82715 16.7335 4.15388C12.3007 6.59192 9.85938 9.90554 9.85938 13.4844V28.5781C9.85938 32.157 12.3007 35.4706 16.7335 37.9086C17.753 38.4653 18.8102 38.9501 19.8974 39.3594H1.23438C0.948438 39.3594 0.674213 39.473 0.472025 39.6751C0.269838 39.8773 0.15625 40.1516 0.15625 40.4375V53.375C0.15625 53.6609 0.269838 53.9352 0.472025 54.1374C0.674213 54.3395 0.948438 54.4531 1.23438 54.4531H56.2188C58.5055 54.4506 60.6978 53.541 62.3147 51.9241C63.9317 50.3071 64.8412 48.1148 64.8438 45.8281V32.8906C64.8412 30.6039 63.9317 28.4116 62.3147 26.7947C60.6978 25.1777 58.5055 24.2682 56.2188 24.2656ZM13.0938 52.2969H2.3125V41.5156H13.0938V52.2969ZM52.9844 24.2656H45.1026C46.1898 23.8564 47.247 23.3716 48.2665 22.8149C50.2531 21.7223 51.8378 20.4534 52.9844 19.0641V24.2656ZM17.7727 6.04316C21.6887 3.88906 26.9191 2.70312 32.5 2.70312C38.0809 2.70312 43.3113 3.88906 47.2273 6.04316C50.9398 8.08512 52.9844 10.7276 52.9844 13.4844C52.9844 16.2411 50.9398 18.8836 47.2273 20.9256C43.3113 23.0797 38.0809 24.2656 32.5 24.2656C26.9191 24.2656 21.6887 23.0797 17.7727 20.9256C14.0602 18.8836 12.0156 16.2411 12.0156 13.4844C12.0156 10.7276 14.0602 8.08512 17.7727 6.04316ZM17.7727 36.0193C14.0602 33.9774 12.0156 31.3348 12.0156 28.5781V19.0637C13.1611 20.453 14.7469 21.7219 16.7335 22.8145C17.2936 23.1225 17.8772 23.4119 18.4844 23.6826V28.5781H20.6406V24.5366C21.7014 24.904 22.7811 25.2144 23.875 25.4665V28.5781H26.0312V25.8963C27.0855 26.0724 28.1661 26.205 29.2656 26.2932V32.8906H31.4219V26.4076C31.7798 26.4166 32.1392 26.4213 32.5 26.4219H34.6562V28.5781H36.8125V26.4219H40.0469V28.5781H42.2031V26.4219H45.4375V32.8906H47.5938V26.4219H50.8281V28.5781H52.9844V26.4219H56.2188V28.5781H58.375V26.7927C59.813 27.3019 61.0249 28.3028 61.7964 29.6188C62.568 30.9347 62.8497 32.4811 62.5917 33.9846C62.3337 35.4881 61.5527 36.8521 60.3866 37.8356C59.2204 38.819 57.7442 39.3588 56.2188 39.3594H32.5C26.9191 39.3594 21.6887 38.1734 17.7727 36.0193ZM62.6875 45.8281C62.6855 47.5431 62.0034 49.1874 60.7907 50.4001C59.578 51.6128 57.9338 52.2949 56.2188 52.2969H15.25V41.5156H18.4844V43.6719H20.6406V41.5156H23.875V43.6719H26.0312V41.5156H29.2656V47.9844H31.4219V41.5156H34.6562V43.6719H36.8125V41.5156H40.0469V43.6719H42.2031V41.5156H45.4375V47.9844H47.5938V41.5156H50.8281V43.6719H52.9844V41.5156H56.2188V43.6719H58.375V41.2427C60.0457 40.8083 61.5479 39.883 62.6875 38.5864V45.8281Z" fill="black"/>
</svg>
