<svg width="40" height="40" viewBox="0 0 40 40" fill="none" xmlns="http://www.w3.org/2000/svg">
<path d="M38.4394 28.7289C38.1488 28.8713 38.0288 29.2223 38.1712 29.513C38.607 30.4021 38.828 31.3591 38.828 32.3573C38.828 33.9433 38.2535 35.397 37.3029 36.5237C36.9013 35.3078 36.0566 34.2642 34.9417 33.6219C35.2199 33.1647 35.3803 32.6282 35.3803 32.055V31.1255C35.3803 29.4585 34.0241 28.1023 32.3572 28.1023C30.6902 28.1023 29.3341 29.4584 29.3341 31.1255V32.055C29.3341 32.6281 29.4944 33.1645 29.7725 33.6217C28.6573 34.2641 27.8127 35.3079 27.4114 36.5237C26.4609 35.397 25.8863 33.9433 25.8863 32.3573C25.8863 28.7892 28.7891 25.8864 32.3572 25.8864C33.9315 25.8864 35.4487 26.4584 36.6294 27.497C36.8723 27.7107 37.2426 27.6871 37.4563 27.4441C37.6701 27.2011 37.6464 26.8309 37.4034 26.6171C36.0087 25.3902 34.2166 24.7145 32.3572 24.7145C30.0046 24.7145 27.8973 25.7832 26.4941 27.4603L15.0816 21.7537C15.2145 21.1903 15.2854 20.6033 15.2854 19.9999C15.2854 19.3966 15.2148 18.8094 15.082 18.246L26.494 12.5396C27.907 14.2333 30.1173 15.2854 32.3571 15.2854C36.5241 15.2854 39.9998 11.8605 39.9998 7.64266C40 3.42852 36.5715 0 32.3573 0C28.143 0 24.7145 3.42852 24.7145 7.64273C24.7145 8.24617 24.7855 8.83328 24.9184 9.39672L20.3318 11.6901C20.0424 11.8348 19.9251 12.1867 20.0698 12.4762C20.2162 12.7689 20.5717 12.8808 20.8559 12.7382L25.2798 10.5262C25.4288 10.8902 25.6045 11.2403 25.8055 11.5738L14.7203 17.1167C14.5715 16.7527 14.3956 16.4026 14.1947 16.069L18.3897 13.9713C18.6791 13.8266 18.7964 13.4747 18.6517 13.1852C18.5071 12.8958 18.1552 12.7784 17.8655 12.9231L13.5059 15.103C12.1029 13.4259 9.99539 12.357 7.64281 12.357C3.42852 12.3573 0 15.7858 0 20C0 24.1731 3.48547 27.6427 7.64273 27.6427C9.91102 27.6427 12.109 26.5767 13.506 24.8968L24.918 30.6031C24.7852 31.1666 24.7145 31.7538 24.7145 32.3573C24.7145 36.5292 28.2017 40 32.3573 40C36.5232 40 40 36.5748 40 32.3573C40 31.1788 39.7388 30.0482 39.2235 28.9972C39.081 28.7066 38.7302 28.5865 38.4394 28.7289ZM32.3573 14.1136C30.8594 14.1136 29.4798 13.6006 28.382 12.743C28.6012 11.4711 29.435 10.3619 30.5959 9.79523C31.0923 10.1524 31.7005 10.3637 32.3573 10.3637C33.0141 10.3637 33.622 10.1525 34.1184 9.79539C35.2791 10.362 36.113 11.4711 36.3327 12.7429C35.2348 13.6005 33.8552 14.1136 32.3573 14.1136ZM30.506 7.34047V6.41094C30.506 5.39016 31.3365 4.55961 32.3573 4.55961C33.378 4.55961 34.2085 5.39008 34.2085 6.41094V7.34047C34.2085 8.36125 33.378 9.1918 32.3573 9.1918C31.3365 9.1918 30.506 8.36133 30.506 7.34047ZM32.3573 1.17188C35.9253 1.17188 38.8281 4.07469 38.8281 7.64273C38.8281 9.22875 38.2536 10.6825 37.303 11.8091C36.9015 10.5935 36.0569 9.54977 34.942 8.90703C35.2202 8.44992 35.3804 7.91352 35.3804 7.34047V6.41094C35.3804 4.74398 34.0242 3.38773 32.3573 3.38773C30.6903 3.38773 29.3341 4.74391 29.3341 6.41094V7.34047C29.3341 7.91344 29.4944 8.44977 29.7724 8.90688C28.6573 9.54961 27.8127 10.5934 27.4115 11.8091C26.4609 10.6824 25.8864 9.22875 25.8864 7.64273C25.8864 4.07469 28.7892 1.17188 32.3573 1.17188ZM7.64273 26.4709C6.14477 26.4709 4.76516 25.9578 3.66727 25.1001C3.88688 23.828 4.72102 22.7191 5.88211 22.153C6.37836 22.5098 6.98617 22.7209 7.64273 22.7209C8.2993 22.7209 8.90719 22.5098 9.40352 22.1529C10.5649 22.7191 11.399 23.8283 11.618 25.1002C10.5202 25.9578 9.14062 26.4709 7.64273 26.4709ZM5.79148 19.6977V18.7682C5.79148 17.7474 6.62195 16.9169 7.64273 16.9169C8.66352 16.9169 9.49398 17.7473 9.49398 18.7682V19.6977C9.49398 20.7185 8.66352 21.5491 7.64273 21.5491C6.62195 21.5491 5.79148 20.7186 5.79148 19.6977ZM12.5886 24.1663C12.1873 22.9506 11.3427 21.907 10.2273 21.2646C10.5055 20.8074 10.6659 20.2709 10.6659 19.6977V18.7682C10.6659 17.1012 9.30977 15.745 7.64281 15.745C5.97586 15.745 4.61969 17.1012 4.61969 18.7682V19.6977C4.61969 20.271 4.78008 20.8075 5.05836 21.2647C3.94328 21.907 3.09852 22.9505 2.69703 24.1662C1.74641 23.0397 1.17188 21.5859 1.17188 20C1.17188 16.432 4.07469 13.5291 7.64273 13.5291C11.2108 13.5291 14.1136 16.432 14.1136 20C14.1136 21.5859 13.5391 23.0397 12.5886 24.1663ZM25.2798 29.4738L14.1946 23.9309C14.3955 23.5974 14.5713 23.2472 14.7202 22.8832L25.8054 28.4261C25.6045 28.7597 25.4286 29.1098 25.2798 29.4738ZM30.506 31.1255C30.506 30.1047 31.3365 29.2741 32.3573 29.2741C33.378 29.2741 34.2085 30.1046 34.2085 31.1255V32.055C34.2085 33.0758 33.378 33.9063 32.3573 33.9063C31.3365 33.9063 30.506 33.0759 30.506 32.055V31.1255ZM32.3573 38.8281C30.8594 38.8281 29.4799 38.3152 28.382 37.4575C28.6013 36.1854 29.4352 35.0763 30.5963 34.51C31.0927 34.867 31.7006 35.0781 32.3573 35.0781C33.0139 35.0781 33.6218 34.867 34.118 34.5101C35.2788 35.0761 36.1128 36.1851 36.3326 37.4573C35.2348 38.3151 33.8552 38.8281 32.3573 38.8281Z" fill="black"/>
</svg>
