<svg width="33" height="33" viewBox="0 0 33 33" fill="none" xmlns="http://www.w3.org/2000/svg">
<g clip-path="url(#clip0)">
<path d="M18.9036 30.8272C17.349 32.3923 14.82 32.4007 13.255 30.8461C11.69 29.2914 11.6816 26.7625 13.2362 25.1975C14.7908 23.6324 17.3198 23.624 18.8848 25.1786C20.4498 26.7333 20.4582 29.2622 18.9036 30.8272Z" fill="white"/>
<path d="M18.8636 18.8448C17.309 20.4098 14.78 20.4183 13.215 18.8636C11.65 17.309 11.6416 14.78 13.1962 13.215C14.7508 11.65 17.2798 11.6416 18.8448 13.1962C20.4098 14.7508 20.4182 17.2798 18.8636 18.8448Z" fill="white"/>
<path d="M18.8238 6.86241C17.2692 8.42742 14.7402 8.43584 13.1752 6.88122C11.6102 5.3266 11.6017 2.79762 13.1564 1.23261C14.711 -0.332401 17.24 -0.340823 18.805 1.2138C20.37 2.76842 20.3784 5.29739 18.8238 6.86241Z" fill="white"/>
</g>
<defs>
<clipPath id="clip0">
<rect width="31.9536" height="31.9536" fill="white" transform="translate(31.9534) rotate(89.8092)"/>
</clipPath>
</defs>
</svg>
