<svg width="69" height="69" viewBox="0 0 69 69" fill="none" xmlns="http://www.w3.org/2000/svg">
<path d="M60.9488 16.0995V45.8145L56.349 67.8478H14.9504C13.6817 67.844 12.6542 66.8165 12.6504 65.5478V3.44987C12.6542 2.18123 13.6816 1.15368 14.9504 1.1499H45.9993L60.9488 16.0995Z" fill="#FFB301"/>
<path d="M57.4989 16.0995V45.8145L52.8991 67.8478H14.9504C13.6817 67.844 12.6542 66.8165 12.6504 65.5478V3.44987C12.6542 2.18123 13.6816 1.15368 14.9504 1.1499H42.5494L57.4989 16.0995Z" fill="#FEC108"/>
<path d="M3.45085 20.6992H23.0002C24.2705 20.6992 25.3002 21.7289 25.3002 22.9992V50.5983C25.3002 51.8685 24.2705 52.8982 23.0002 52.8982H3.45085C2.18059 52.8982 1.15088 51.8685 1.15088 50.5983V22.9992C1.15088 21.7289 2.18059 20.6992 3.45085 20.6992Z" fill="#283593"/>
<path d="M3.45085 20.6992H19.5504C20.8206 20.6992 21.8503 21.7289 21.8503 22.9992V50.5983C21.8503 51.8685 20.8206 52.8982 19.5504 52.8982H3.45085C2.18059 52.8982 1.15088 51.8685 1.15088 50.5983V22.9992C1.15088 21.7289 2.18059 20.6992 3.45085 20.6992Z" fill="#3F51B5"/>
<path d="M45.9993 1.1499V13.7995C45.9993 15.0698 47.029 16.0995 48.2992 16.0995H60.9489L45.9993 1.1499Z" fill="#FF9801"/>
<path d="M16.1006 34.4985H19.5505C20.1856 34.4985 20.7004 35.0135 20.7004 35.6485V37.9484C20.7004 38.5835 20.1855 39.0983 19.5505 39.0983H16.1006C15.4655 39.0983 14.9507 38.5834 14.9507 37.9484V35.6485C14.9507 35.0135 15.4655 34.4985 16.1006 34.4985Z" fill="#E91E63"/>
<path d="M16.1006 43.6982H19.5505C20.1856 43.6982 20.7004 44.213 20.7004 44.8482V47.1481C20.7004 47.7833 20.1855 48.298 19.5505 48.298H16.1006C15.4655 48.298 14.9507 47.7831 14.9507 47.1481V44.8482C14.9507 44.213 15.4655 43.6982 16.1006 43.6982Z" fill="#E91E63"/>
<path d="M6.90089 25.2988H19.5505C20.1856 25.2988 20.7004 25.8138 20.7004 26.4487V28.7487C20.7004 29.3838 20.1855 29.8986 19.5505 29.8986H6.90089C6.26576 29.8986 5.75098 29.3837 5.75098 28.7487V26.4487C5.75084 25.8138 6.26576 25.2988 6.90089 25.2988Z" fill="white"/>
<path d="M66.8134 61.1204C64.6771 65.8046 59.6898 68.5002 54.6008 67.7211C53.5563 67.5563 52.5388 67.2507 51.5763 66.8127C47.3438 64.8825 44.6907 60.5927 44.8543 55.9437C45.0179 51.2947 47.9658 47.2018 52.3236 45.5739C56.6814 43.9459 61.5907 45.1034 64.7625 48.5063C67.9342 51.9092 68.7437 56.8878 66.8134 61.1204Z" fill="#2E7D32"/>
<path d="M63.3639 61.1206C61.7517 64.6648 58.4527 67.1499 54.6012 67.7213C53.5567 67.5565 52.5392 67.2508 51.5767 66.8129C46.9406 64.6998 44.2476 59.7878 44.9596 54.7427C45.6715 49.6977 49.6187 45.7226 54.6586 44.9751C58.2143 45.534 61.3047 47.7219 63.013 50.8902C64.7213 54.0584 64.8511 57.8428 63.3639 61.1206Z" fill="#4CAF50"/>
<path d="M3.45062 54.0482H23C24.9045 54.0461 26.4479 52.5027 26.4499 50.5983V22.9992C26.4479 21.0948 24.9045 19.5513 23 19.5493H3.45062C1.54617 19.5513 0.00275384 21.0948 0.000732422 22.9992V50.5983C0.00275384 52.5027 1.54604 54.046 3.45062 54.0482ZM2.30057 22.9992C2.30138 22.3645 2.81576 21.8501 3.45048 21.8493H22.9999C23.6346 21.8501 24.149 22.3645 24.1498 22.9992V50.5983C24.149 51.233 23.6346 51.7474 22.9999 51.7482H3.45062C2.81589 51.7474 2.30151 51.233 2.3007 50.5983V22.9992H2.30057Z" fill="black"/>
<path d="M62.0842 16.0271C62.0779 15.9265 62.058 15.827 62.0253 15.7316C62.0144 15.6948 62.0014 15.6587 61.9868 15.6233C61.9324 15.4985 61.8563 15.3843 61.7616 15.2865L46.8121 0.336903C46.7141 0.242166 46.6 0.165891 46.4749 0.111582C46.4398 0.097028 46.4038 0.0842257 46.3673 0.0733101C46.2714 0.0404283 46.1717 0.0206185 46.0705 0.0142847C46.0461 0.0126675 46.0239 0 45.9991 0H14.9501C13.0457 0.00202142 11.5023 1.54544 11.5002 3.44989V16.0995C11.5002 16.7346 12.0152 17.2494 12.6502 17.2494C13.2853 17.2494 13.8001 16.7345 13.8001 16.0995V3.44989C13.8009 2.81516 14.3153 2.30078 14.95 2.29997H44.849V13.7995C44.8511 15.704 46.3945 17.2474 48.2989 17.2494H59.7985V44.1957C53.8654 42.5058 47.5792 45.3475 44.9282 50.918C42.277 56.4885 44.036 63.159 49.0893 66.6979H14.9501C14.3154 66.6971 13.801 66.1827 13.8002 65.548V57.4983C13.8002 56.8631 13.2853 56.3484 12.6503 56.3484C12.0152 56.3484 11.5004 56.8631 11.5004 57.4983V65.5478C11.5024 67.4523 13.0458 68.9957 14.9503 68.9977H56.29C56.3041 68.9978 56.3184 69 56.3327 69C62.1809 69.012 67.2738 65.0103 68.6454 59.3251C70.017 53.6399 67.3093 47.7562 62.0989 45.1002V16.0995C62.0986 16.0744 62.0858 16.0519 62.0842 16.0271ZM48.2991 14.9495C47.6643 14.9486 47.15 14.4343 47.1491 13.7995V3.926L58.1726 14.9495H48.2991ZM65.7675 60.6476C63.3942 65.8465 57.2561 68.1373 52.0571 65.7645C46.8582 63.3918 44.5667 57.2539 46.9389 52.0547C49.3111 46.8555 55.4488 44.5635 60.6482 46.9352C65.8428 49.3133 68.1327 55.4471 65.7675 60.6476Z" fill="black"/>
<path d="M19.5501 33.3486H16.1003C14.8305 33.3498 13.8016 34.3789 13.8003 35.6486V37.9484C13.8015 39.2182 14.8305 40.2471 16.1003 40.2484H19.5501C20.8199 40.2472 21.8488 39.2182 21.8501 37.9484V35.6485C21.8488 34.3789 20.8199 33.3498 19.5501 33.3486ZM19.5501 37.9484H16.1003V35.6485H19.5501V37.9484Z" fill="black"/>
<path d="M19.5501 42.5488H16.1003C14.8305 42.55 13.8016 43.5791 13.8003 44.8488V47.1488C13.8015 48.4185 14.8305 49.4474 16.1003 49.4487H19.5501C20.8199 49.4475 21.8488 48.4185 21.8501 47.1488V44.8488C21.8488 43.5791 20.8199 42.5502 19.5501 42.5488ZM19.5501 47.1488H16.1003L16.0986 44.8488H19.5501V47.1488Z" fill="black"/>
<path d="M5.75075 37.9484H6.90066V39.0983C6.90066 39.7335 7.41559 40.2483 8.05058 40.2483C8.68558 40.2483 9.2005 39.7333 9.2005 39.0983V37.9484H10.3504C10.9855 37.9484 11.5003 37.4336 11.5003 36.7985C11.5003 36.1634 10.9855 35.6486 10.3504 35.6486H9.2005V34.4985C9.2005 33.8634 8.68558 33.3486 8.05058 33.3486C7.41559 33.3486 6.90066 33.8636 6.90066 34.4985V35.6485H5.75075C5.11562 35.6485 4.60083 36.1633 4.60083 36.7984C4.60083 37.4335 5.11562 37.9484 5.75075 37.9484Z" fill="black"/>
<path d="M5.75075 47.148H10.3505C10.9857 47.148 11.5005 46.6331 11.5005 45.9981C11.5005 45.3631 10.9857 44.8481 10.3505 44.8481H5.75075C5.11562 44.8481 4.60083 45.3629 4.60083 45.9981C4.60083 46.6332 5.11562 47.148 5.75075 47.148Z" fill="black"/>
<path d="M29.8997 24.1489H56.3488C56.984 24.1489 57.4987 23.634 57.4987 22.999C57.4987 22.3639 56.984 21.8491 56.3488 21.8491H29.8997C29.2645 21.8491 28.7498 22.364 28.7498 22.999C28.7498 23.6342 29.2645 24.1489 29.8997 24.1489Z" fill="black"/>
<path d="M29.8997 31.0489H56.3488C56.984 31.0489 57.4987 30.5339 57.4987 29.8989C57.4987 29.2638 56.984 28.749 56.3488 28.749H29.8997C29.2645 28.749 28.7498 29.2639 28.7498 29.8989C28.7498 30.5339 29.2645 31.0489 29.8997 31.0489Z" fill="black"/>
<path d="M29.8997 37.9483H56.3488C56.984 37.9483 57.4987 37.4335 57.4987 36.7984C57.4987 36.1632 56.984 35.6484 56.3488 35.6484H29.8997C29.2645 35.6484 28.7498 36.1632 28.7498 36.7984C28.7498 37.4335 29.2645 37.9483 29.8997 37.9483Z" fill="black"/>
<path d="M29.8997 44.8487H45.9992C46.6343 44.8487 47.1491 44.3339 47.1491 43.6987C47.1491 43.0636 46.6342 42.5488 45.9992 42.5488H29.8997C29.2645 42.5488 28.7498 43.0637 28.7498 43.6987C28.7498 44.3337 29.2645 44.8487 29.8997 44.8487Z" fill="black"/>
<path d="M6.9008 31.0488H19.5504C20.8201 31.0476 21.849 30.0186 21.8504 28.7489V26.4489C21.8492 25.1792 20.8201 24.1503 19.5504 24.1489H6.9008C5.63108 24.1501 4.60218 25.1792 4.60083 26.4489V28.7489C4.60204 30.0186 5.63108 31.0476 6.9008 31.0488ZM6.9008 26.449H19.5504L19.552 28.749H6.9008V26.449Z" fill="black"/>
<path d="M60.1095 50.8859L60.2622 50.5512C60.5258 49.9735 60.2711 49.2914 59.6934 49.0278C59.1156 48.7642 58.4336 49.0189 58.17 49.5967L58.0175 49.931C57.2903 49.7628 56.534 49.7647 55.8078 49.9369C54.7065 50.1668 53.7803 50.9071 53.3131 51.9306C52.846 52.9541 52.8937 54.1388 53.4415 55.1213C53.788 55.7826 54.2822 56.3549 54.8858 56.7943L53.5887 59.6368C53.4363 59.4784 53.3064 59.2997 53.2029 59.1058C52.9959 58.7395 52.9631 58.2999 53.1135 57.907C53.284 57.5333 53.2422 57.0969 53.0038 56.7625C52.7654 56.428 52.3667 56.2459 51.9578 56.2851C51.5489 56.3243 51.192 56.5786 51.0215 56.9525C50.5757 57.9802 50.6231 59.155 51.15 60.1435C51.4964 60.8046 51.9907 61.3771 52.5943 61.8161L52.4416 62.1509C52.2703 62.5247 52.3118 62.9616 52.5502 63.2966C52.7887 63.6316 53.1879 63.8137 53.5972 63.7744C54.0064 63.7349 54.3636 63.4799 54.5338 63.1055L54.6807 62.7836C55.0359 62.8622 55.3985 62.9023 55.7624 62.9035C56.1446 62.9045 56.5253 62.858 56.8961 62.7654C57.9974 62.5355 58.9236 61.7953 59.3907 60.7717C59.8578 59.7482 59.8101 58.5635 59.2623 57.581C58.9158 56.9197 58.4216 56.3474 57.818 55.9081L59.1151 53.0656C59.2675 53.2239 59.3974 53.4026 59.5008 53.5965C59.7078 53.9628 59.7405 54.4024 59.5901 54.7953C59.4189 55.1692 59.4604 55.6061 59.6988 55.9411C59.9373 56.2761 60.3365 56.4582 60.7457 56.4188C61.155 56.3793 61.5121 56.1244 61.6822 55.75C62.128 54.7223 62.0805 53.5475 61.5536 52.559C61.2073 51.8973 60.7131 51.325 60.1095 50.8859ZM55.4945 54.0841C55.2616 53.726 55.2279 53.2738 55.4051 52.8852C55.5823 52.4967 55.9462 52.2257 56.3692 52.1671C56.5835 52.1179 56.8034 52.0988 57.0229 52.1104L55.8802 54.6148C55.7279 54.4564 55.5981 54.2779 55.4945 54.0841ZM57.2093 58.6177C57.4422 58.9758 57.4759 59.428 57.2985 59.8166C57.1212 60.2051 56.7575 60.4761 56.3344 60.5347C56.1202 60.5836 55.9002 60.6026 55.6809 60.5912L56.8235 58.087C56.9759 58.2454 57.1057 58.4239 57.2093 58.6177Z" fill="black"/>
</svg>
