<svg width="69" height="69" viewBox="0 0 69 69" fill="none" xmlns="http://www.w3.org/2000/svg">
<path d="M64.8935 46.7683L68.9385 20.9407C69.3591 18.3198 67.5758 15.8537 64.9547 15.4319L10.3733 6.67131C7.75235 6.2507 5.28642 8.03405 4.86581 10.655L2.92627 22.7336V46.6181L64.8935 46.7683Z" fill="#146AA8"/>
<path d="M64.9548 15.4313L49.4525 12.9438C39.0406 28.8751 22.2091 39.9094 9.30127 46.6332L64.8935 46.7678L68.9385 20.9401C69.3591 18.3191 67.5757 15.8532 64.9548 15.4313Z" fill="#126099"/>
<path d="M4.80695 21.5312H60.0866C62.7412 21.5312 64.8936 23.6836 64.8936 26.3382V57.5833C64.8936 60.2379 62.7412 62.3902 60.0866 62.3902H4.80695C2.15234 62.3901 0 60.2379 0 57.5833V26.3382C0 23.6836 2.15234 21.5312 4.80695 21.5312Z" fill="#4398D1"/>
<path d="M60.0864 21.5312H59.125C47.7806 41.6711 26.5834 55.4862 13.6431 62.3901H60.0864C62.7411 62.3901 64.8934 60.2378 64.8934 57.5831V26.3382C64.8934 23.6836 62.7411 21.5312 60.0864 21.5312Z" fill="#3E8CC7"/>
<path d="M18.0261 27.54H6.00879V37.1539H18.0261V27.54Z" fill="#FDB62F"/>
<path d="M9.61404 31.1455H6.00879V33.5489H9.61404V31.1455Z" fill="#FD7B2F"/>
<path d="M18.0261 31.1455H14.4209V33.5489H18.0261V31.1455Z" fill="#FD7B2F"/>
<path d="M52.8763 56.3821C56.1948 56.3821 58.885 53.6919 58.885 50.3734C58.885 47.0549 56.1948 44.3647 52.8763 44.3647C49.5578 44.3647 46.8677 47.0549 46.8677 50.3734C46.8677 53.6919 49.5578 56.3821 52.8763 56.3821Z" fill="#FDB62F"/>
<path d="M45.6659 56.3821C48.9844 56.3821 51.6745 53.6919 51.6745 50.3734C51.6745 47.0549 48.9844 44.3647 45.6659 44.3647C42.3474 44.3647 39.6572 47.0549 39.6572 50.3734C39.6572 53.6919 42.3474 56.3821 45.6659 56.3821Z" fill="#DE4C3C"/>
<path d="M12.0172 45.5659H4.80688V47.9693H12.0172V45.5659Z" fill="#87CED9"/>
<path d="M24.0346 45.5659H16.8242V47.9693H24.0346V45.5659Z" fill="#87CED9"/>
<path d="M36.0519 45.5659H28.8416V47.9693H36.0519V45.5659Z" fill="#87CED9"/>
<path d="M36.052 52.7764H4.80688V55.1798H36.052V52.7764Z" fill="#87CED9"/>
<path d="M44.464 27.54H42.0605V32.347H44.464V27.54Z" fill="#87CED9"/>
<path d="M49.2708 27.54H46.8674V32.347H49.2708V27.54Z" fill="#87CED9"/>
<path d="M54.0777 27.54H51.6743V32.347H54.0777V27.54Z" fill="#87CED9"/>
<path d="M58.8848 27.54H56.4814V32.347H58.8848V27.54Z" fill="#87CED9"/>
</svg>
