<svg width="65" height="69" viewBox="0 0 65 69" fill="none" xmlns="http://www.w3.org/2000/svg">
<path d="M1.57129 9.40797V66.6107C1.57129 67.3725 2.18826 67.9894 2.94948 67.9894H47.3837C48.1449 67.9894 48.7624 67.3725 48.7624 66.6107V9.40797C48.7624 8.64676 48.1449 8.02979 47.3837 8.02979H2.95C2.18879 8.02979 1.57129 8.64676 1.57129 9.40797Z" fill="#F2F2F2"/>
<path d="M47.3836 8.02979H41.9792V67.9894H47.3836C48.1448 67.9894 48.7623 67.3725 48.7623 66.6107V9.40797C48.7623 8.64676 48.1448 8.02979 47.3836 8.02979Z" fill="#DBD9D1"/>
<path d="M42.0041 5.16426H30.6101V2.93747C30.6101 1.87356 29.7473 1.01074 28.6834 1.01074H21.6503C20.5864 1.01074 19.7241 1.87303 19.7241 2.93747V5.16426H8.32957C7.96529 5.16426 7.66943 5.45959 7.66943 5.8244V10.3138C7.66943 10.6786 7.96529 10.9739 8.32957 10.9739H42.0041C42.3684 10.9739 42.6637 10.6786 42.6637 10.3138V5.8244C42.6643 5.45959 42.3684 5.16426 42.0041 5.16426Z" fill="#EE5646"/>
<path d="M42.004 5.16406H35.8811V10.9737H42.004C42.3683 10.9737 42.6641 10.6784 42.6641 10.3136V5.8242C42.6641 5.45939 42.3683 5.16406 42.004 5.16406Z" fill="#D83E3A"/>
<path d="M23.8271 2.27733V5.16426H30.6096V2.93747C30.6096 1.87356 29.7473 1.01074 28.6834 1.01074H22.5605C23.2602 1.01074 23.8271 1.57771 23.8271 2.27733Z" fill="#D83E3A"/>
<path d="M58.2503 13.332H55.0427V7.068C55.0427 6.24098 55.7129 5.57031 56.5404 5.57031H56.752C57.5796 5.57031 58.2503 6.24098 58.2503 7.068V13.332Z" fill="#EE5646"/>
<path d="M59.173 61.0305L57.4 67.4166C57.1878 68.1805 56.1045 68.1805 55.8923 67.4166L54.1193 61.0305C53.9951 60.5815 53.9319 60.1182 53.9319 59.6523V12.408C53.9319 11.7284 54.4831 11.1772 55.1627 11.1772H58.1296C58.8092 11.1772 59.3604 11.7284 59.3604 12.408V59.6523C59.3604 60.1182 59.2972 60.5815 59.173 61.0305Z" fill="#4F6877"/>
<path d="M56.6462 60.564C55.7597 60.564 54.9048 60.6982 54.0994 60.9462C54.1067 60.9741 54.112 61.0025 54.1199 61.0304L55.8929 67.4165C56.1051 68.1803 57.1879 68.1803 57.4001 67.4165L59.1731 61.0304C59.181 61.0025 59.1862 60.9741 59.1936 60.9462C58.3882 60.6982 57.5327 60.564 56.6462 60.564Z" fill="#FED066"/>
<path d="M59.5889 18.6957H53.7035C53.4629 18.6957 53.2676 18.5004 53.2676 18.2598V15.2723C53.2676 15.0312 53.4629 14.8364 53.7035 14.8364H59.5889C59.8295 14.8364 60.0248 15.0312 60.0248 15.2723V18.2598C60.0248 18.5004 59.8295 18.6957 59.5889 18.6957Z" fill="#FED066"/>
<path d="M41.9709 44.3287H8.72962C8.14423 44.3287 7.66992 43.8538 7.66992 43.2685V20.0925C7.66992 19.5065 8.14423 19.0322 8.72962 19.0322H41.9709C42.5563 19.0322 43.0306 19.5065 43.0306 20.0925V43.2685C43.0306 43.8538 42.5563 44.3287 41.9709 44.3287Z" fill="#87DBFD"/>
<path d="M41.9711 19.0322H36.2483V44.3287H41.9711C42.5565 44.3287 43.0308 43.8538 43.0308 43.2685V20.0925C43.0308 19.5071 42.5565 19.0322 41.9711 19.0322Z" fill="#59C2E9"/>
<path d="M16.076 37.5483H13.4807C13.2781 37.5483 13.1133 37.7131 13.1133 37.9158V44.3293H16.4435V37.9158C16.4435 37.7131 16.2787 37.5483 16.076 37.5483Z" fill="#FED066"/>
<path d="M23.0018 33.9375H20.4065C20.2038 33.9375 20.0391 34.1017 20.0391 34.3049V44.3292H23.3692V34.3049C23.3692 34.1023 23.2045 33.9375 23.0018 33.9375Z" fill="#FED066"/>
<path d="M29.9273 30.7676H27.332C27.1294 30.7676 26.9646 30.9318 26.9646 31.1345V44.3289H30.2948V31.1345C30.2948 30.9318 30.13 30.7676 29.9273 30.7676Z" fill="#FED066"/>
<path d="M36.8531 28.1006H34.2578C34.0552 28.1006 33.8904 28.2648 33.8904 28.468V44.3288H37.2206V28.468C37.2206 28.2654 37.0558 28.1006 36.8531 28.1006Z" fill="#FED066"/>
<path d="M23.3691 62.0513H7.66943C7.11142 62.0513 6.65869 62.5035 6.65869 63.062C6.65869 63.62 7.11142 64.0728 7.66943 64.0728H23.3691C23.9271 64.0728 24.3798 63.62 24.3798 63.062C24.3798 62.5035 23.9271 62.0513 23.3691 62.0513Z" fill="black"/>
<path d="M43.0307 58.4478H7.66943C7.11142 58.4478 6.65869 58.9 6.65869 59.4585C6.65869 60.017 7.11142 60.4692 7.66943 60.4692H43.0307C43.5892 60.4692 44.0414 60.017 44.0414 59.4585C44.0414 58.9 43.5892 58.4478 43.0307 58.4478Z" fill="black"/>
<path d="M7.66943 54.3105H23.3691C23.9271 54.3105 24.3798 53.8583 24.3798 53.2998C24.3798 52.7413 23.9271 52.2891 23.3691 52.2891H7.66943C7.11142 52.2891 6.65869 52.7413 6.65869 53.2998C6.65869 53.8583 7.11142 54.3105 7.66943 54.3105Z" fill="black"/>
<path d="M43.0307 48.6855H7.66943C7.11142 48.6855 6.65869 49.1377 6.65869 49.6963C6.65869 50.2548 7.11142 50.707 7.66943 50.707H43.0307C43.5892 50.707 44.0414 50.2548 44.0414 49.6963C44.0414 49.1377 43.5892 48.6855 43.0307 48.6855Z" fill="black"/>
<path d="M43.0306 32.9527C42.4726 32.9527 42.0199 33.4049 42.0199 33.9634V43.2691C42.0199 43.2959 41.9978 43.318 41.9709 43.318H38.2312V28.468C38.2312 27.7079 37.6132 27.0898 36.853 27.0898H34.2577C33.4981 27.0898 32.8795 27.7079 32.8795 28.468V43.318H31.3055V31.1344C31.3055 30.3748 30.6869 29.7562 29.9273 29.7562H27.332C26.5719 29.7562 25.9538 30.3748 25.9538 31.1344V43.318H24.3798V34.3045C24.3798 33.5444 23.7618 32.9264 23.0016 32.9264H20.4063C19.6467 32.9264 19.0281 33.5444 19.0281 34.3045V43.318H17.4541V37.9153C17.4541 37.1551 16.8356 36.5371 16.0759 36.5371H13.4806C12.721 36.5371 12.1024 37.1551 12.1024 37.9153V43.318H8.72962C8.70277 43.318 8.68066 43.2959 8.68066 43.2686V33.9371C8.68066 33.3786 8.22794 32.9264 7.66992 32.9264C7.11138 32.9264 6.65918 33.3786 6.65918 33.9371V43.2686C6.65918 44.4104 7.5878 45.3395 8.72962 45.3395H41.9709C43.1128 45.3395 44.0414 44.4104 44.0414 43.2686V33.9629C44.0414 33.4049 43.5892 32.9527 43.0306 32.9527ZM15.4326 43.318H14.1239V38.5586H15.4326V43.318ZM22.3583 43.318H21.0496V34.9478H22.3583V43.318ZM29.284 43.318H27.9753V31.7782H29.284V43.318ZM36.2097 43.318H34.9015V29.1113H36.2097V43.318Z" fill="black"/>
<path d="M41.9709 18.0215H8.72962C7.5878 18.0215 6.65918 18.9506 6.65918 20.0925V29.3981C6.65918 29.9561 7.11138 30.4089 7.66992 30.4089C8.22794 30.4089 8.68066 29.9561 8.68066 29.3981V20.0925C8.68066 20.0651 8.70277 20.043 8.72962 20.043H41.9709C41.9978 20.043 42.0199 20.0651 42.0199 20.0925V29.3981C42.0199 29.9561 42.4726 30.4089 43.0306 30.4089C43.5892 30.4089 44.0414 29.9561 44.0414 29.3981V20.0925C44.0414 18.9506 43.1128 18.0215 41.9709 18.0215Z" fill="black"/>
<path d="M47.3841 7.01885H43.6749V5.82439C43.6749 4.90314 42.9253 4.15351 42.004 4.15351H31.6208V2.93746C31.6208 1.31765 30.3032 0 28.6833 0H21.6503C20.031 0 18.7133 1.31765 18.7133 2.93746V4.15351H8.32956C7.40831 4.15351 6.65868 4.90314 6.65868 5.82439V7.01885H2.95C1.63235 7.01885 0.560547 8.09066 0.560547 9.40778V66.6104C0.560547 67.9281 1.63235 68.9999 2.95 68.9999H47.3841C48.7012 68.9999 49.7731 67.9281 49.7731 66.6104V9.40831C49.7731 8.09066 48.7012 7.01885 47.3841 7.01885ZM8.68016 6.17499H19.7235C20.2821 6.17499 20.7343 5.72226 20.7343 5.16425V2.93746C20.7343 2.43262 21.1454 2.02148 21.6503 2.02148H28.6833C29.1882 2.02148 29.5988 2.43262 29.5988 2.93746V5.16425C29.5988 5.72226 30.0515 6.17499 30.6095 6.17499H41.6529V9.96316H8.68016V6.17499ZM47.7516 66.6104C47.7516 66.8136 47.5868 66.9784 47.3836 66.9784H2.95C2.74732 66.9784 2.58203 66.8136 2.58203 66.6104V9.40831C2.58203 9.20511 2.7468 9.04033 2.95 9.04033H6.65868V10.3138C6.65868 11.235 7.40831 11.9846 8.32956 11.9846H42.004C42.9253 11.9846 43.6744 11.235 43.6744 10.3138V9.04033H47.3836C47.5868 9.04033 47.7516 9.20511 47.7516 9.40831V66.6104Z" fill="black"/>
<path d="M61.2493 15.7551H61.0356V15.2724C61.0356 14.7633 60.7702 14.3153 60.3712 14.0574V12.4081C60.3712 11.5848 59.9237 10.8657 59.261 10.4761V7.068C59.261 5.68507 58.1355 4.55957 56.752 4.55957H56.5404C55.1569 4.55957 54.032 5.68507 54.032 7.068V10.4761C53.3687 10.8657 52.9212 11.5848 52.9212 12.4081V14.0574C52.5222 14.3153 52.2568 14.7633 52.2568 15.2724V18.2599C52.2568 18.7689 52.5222 19.2169 52.9212 19.4749V59.6524C52.9212 60.1704 52.9891 60.6852 53.1181 61.1864C53.1202 61.1938 53.1207 61.2011 53.1228 61.2085C53.1302 61.2396 53.1376 61.2717 53.146 61.3006L54.9185 67.6873C55.1369 68.4727 55.8313 69.0002 56.6462 69.0002C57.4616 69.0002 58.156 68.4727 58.3739 67.6873L60.1469 61.3006C60.1475 61.2996 60.1475 61.2985 60.148 61.2969C60.1559 61.2669 60.1633 61.2364 60.1717 61.2001C60.1727 61.1959 60.1733 61.1917 60.1743 61.1874C60.3033 60.6863 60.3717 60.1709 60.3717 59.6524V50.7721C60.3717 50.2141 59.919 49.7613 59.361 49.7613C58.8024 49.7613 58.3502 50.2141 58.3502 50.7721V59.6524C58.3502 59.6703 58.3481 59.6882 58.3481 59.7061C57.2253 59.5071 56.0671 59.5071 54.9448 59.7061C54.9443 59.6882 54.9427 59.6703 54.9427 59.6524V19.7065H58.3502V46.2085C58.3502 46.7665 58.8024 47.2192 59.361 47.2192C59.919 47.2192 60.3717 46.7665 60.3717 46.2085V19.4749C60.7708 19.2169 61.0361 18.7694 61.0361 18.2599V17.7771H61.2498C61.8531 17.7771 62.3443 18.2683 62.3443 18.8716V34.9824C62.3443 35.5409 62.7965 35.9931 63.355 35.9931C63.913 35.9931 64.3657 35.5409 64.3657 34.9824V18.8716C64.3652 17.1533 62.9675 15.7551 61.2493 15.7551ZM57.9423 61.6849L57.3548 63.7996L56.6462 66.3528L55.3507 61.6849C56.2035 61.5386 57.0894 61.5391 57.9423 61.6849ZM56.0534 7.068C56.0534 6.79952 56.2719 6.58105 56.5404 6.58105H56.752C57.0205 6.58105 57.239 6.79952 57.239 7.068V10.1666H56.0529V7.068H56.0534ZM54.9427 12.4081C54.9427 12.287 55.0411 12.188 55.1627 12.188H58.1297C58.2513 12.188 58.3502 12.2865 58.3502 12.4081V13.8258H54.9427V12.4081ZM59.0141 17.685H54.2783V15.8472H59.0141V17.685Z" fill="black"/>
</svg>
