<svg width="40" height="40" viewBox="0 0 40 40" fill="none" xmlns="http://www.w3.org/2000/svg">
<path d="M39.3562 19.9252L36.3463 16.9951L39.3561 14.066C39.7901 13.6439 39.9558 13.0428 39.7993 12.458C39.6428 11.8727 39.1986 11.4343 38.6111 11.2851L34.5394 10.2533L35.6819 6.21077C35.8463 5.62813 35.6889 5.02455 35.2607 4.59636C34.8325 4.16824 34.229 4.01075 33.6462 4.17519L29.6039 5.31704L29.4634 4.76244C29.384 4.4487 29.0652 4.25894 28.7516 4.33832C28.4379 4.41777 28.248 4.73651 28.3274 5.05017L28.6157 6.18842C28.6545 6.3417 28.7537 6.47287 28.8907 6.55193C29.0276 6.63099 29.1907 6.6513 29.343 6.60841L33.9647 5.30306C34.2082 5.23439 34.3726 5.36556 34.4321 5.42501C34.4916 5.48454 34.6227 5.6493 34.5541 5.89226L33.2479 10.514C33.2049 10.6663 33.2253 10.8294 33.3043 10.9664C33.3834 11.1033 33.5145 11.2025 33.6678 11.2413L38.323 12.421C38.5684 12.4833 38.6455 12.6794 38.6673 12.7608C38.689 12.8421 38.7201 13.05 38.5389 13.2261L35.0976 16.5753C34.9842 16.6856 34.9203 16.837 34.9203 16.9952C34.9203 17.1534 34.9842 17.3048 35.0976 17.4151L38.539 20.7652C38.7201 20.9413 38.689 21.1492 38.6672 21.2305C38.6455 21.3117 38.5683 21.5073 38.3231 21.5694L33.6678 22.7498C33.5145 22.7887 33.3834 22.8878 33.3043 23.0249C33.2253 23.1618 33.205 23.3249 33.2479 23.4771L34.5541 28.0987C34.6227 28.3419 34.4916 28.5066 34.4321 28.5661C34.3727 28.6255 34.208 28.7563 33.9648 28.6874L32.2524 28.204C32.5691 27.7348 32.7552 27.1705 32.7552 26.5631C32.7552 25.5541 32.2447 24.6622 31.4684 24.132C32.2498 23.5381 32.7552 22.5989 32.7552 21.5439C32.7552 19.7523 31.2976 18.2947 29.506 18.2947H22.0291L23.0467 15.9358C23.1244 15.7558 23.1851 15.5671 23.2272 15.3751L23.5011 14.1242C23.7943 12.7854 23.4697 11.4054 22.6106 10.3378C21.7514 9.27007 20.4727 8.65781 19.1024 8.65781C18.0739 8.65781 17.1645 9.35022 16.8909 10.3417L15.8892 13.972L14.5522 16.3637C14.3943 16.6462 14.4953 17.0032 14.7778 17.161C15.0603 17.3189 15.4173 17.2179 15.5751 16.9355L16.9467 14.482C16.9697 14.4409 16.9876 14.3973 17.0001 14.3519L18.0207 10.6533C18.1545 10.1683 18.5993 9.82958 19.1024 9.82958C20.1162 9.82958 21.0621 10.2825 21.6978 11.0724C22.3334 11.8622 22.5734 12.8831 22.3566 13.8734L22.0827 15.1242C22.0567 15.2431 22.019 15.3599 21.9709 15.4714L20.7529 18.2946H18.4048C18.0812 18.2946 17.8189 18.5569 17.8189 18.8805C17.8189 19.2041 18.0812 19.4664 18.4048 19.4664H29.506C30.6514 19.4664 31.5834 20.3984 31.5834 21.5438C31.5834 22.6893 30.6514 23.6212 29.506 23.6212C29.4658 23.6212 26.9226 23.6212 26.9226 23.6212C26.599 23.6212 26.3367 23.8835 26.3367 24.2071C26.3367 24.5307 26.599 24.793 26.9226 24.793H29.8133C30.7893 24.793 31.5833 25.5871 31.5833 26.5631C31.5833 27.5391 30.7892 28.3331 29.8133 28.3331H26.4344C26.1108 28.3331 25.8484 28.5954 25.8484 28.919C25.8484 29.2426 26.1108 29.5049 26.4344 29.5049H29.2518C30.1214 29.5049 30.8288 30.2124 30.8288 31.0819C30.8288 31.9515 30.1214 32.6589 29.2518 32.6589H25.4578C25.1342 32.6589 24.8719 32.9213 24.8719 33.2449C24.8719 33.5684 25.1342 33.8308 25.4578 33.8308H28.4406C29.3169 33.8308 30.0298 34.5436 30.0298 35.4199C30.0298 36.2963 29.3169 37.0091 28.4406 37.0091H18.8089C18.3783 37.0091 17.9524 36.9248 17.5568 36.763C17.9668 35.9588 18.1996 35.0499 18.1996 34.087C18.1996 33.5219 18.1191 32.9631 17.9621 32.4244L18.8135 31.573C19.1274 31.2592 19.3002 30.842 19.3002 30.3982C19.3002 29.9544 19.1274 29.5372 18.8136 29.2233C18.1658 28.5757 17.1119 28.5756 16.464 29.2233L16.1098 29.5775C15.0423 28.6705 13.6977 28.1739 12.2865 28.1739C11.0958 28.1739 9.96649 28.536 9.0194 29.1657V21.9627H12.421C12.6333 21.9627 12.8289 21.8479 12.9324 21.6627L14.1909 19.4115C14.3488 19.129 14.2479 18.7721 13.9654 18.6142C13.6829 18.4563 13.3259 18.5573 13.168 18.8397L12.0773 20.7909H9.0194V20.6468C9.0194 20.1879 8.80472 19.7788 8.47121 19.5126L10.6257 17.4152C10.739 17.3049 10.8029 17.1534 10.8029 16.9953C10.8029 16.8371 10.739 16.6857 10.6256 16.5753L7.18445 13.2262C7.00344 13.05 7.03453 12.8417 7.05633 12.7604C7.07812 12.679 7.15523 12.4832 7.39999 12.421L12.0553 11.2413C12.2086 11.2025 12.3398 11.1033 12.4188 10.9664C12.4979 10.8294 12.5183 10.6662 12.4753 10.514L11.169 5.8925C11.1004 5.6493 11.2315 5.48454 11.2911 5.42501C11.3506 5.36548 11.5155 5.23439 11.7583 5.30298L16.3801 6.60841C16.5322 6.65138 16.6953 6.63099 16.8323 6.55193C16.9693 6.47287 17.0684 6.34178 17.1073 6.1885L18.287 1.53417C18.3492 1.28871 18.5453 1.2116 18.6268 1.1898C18.7081 1.16808 18.9159 1.13707 19.0922 1.31824L22.4421 4.75955C22.5524 4.87291 22.7038 4.93682 22.862 4.93682C23.0202 4.93682 23.1715 4.87291 23.2819 4.75955L26.6311 1.31808C26.8072 1.13707 27.0153 1.16816 27.0964 1.1898C27.1778 1.2116 27.3739 1.28878 27.4361 1.53401L27.6299 2.29805C27.7094 2.61172 28.0284 2.80164 28.3418 2.72203C28.6555 2.6425 28.8453 2.32368 28.7658 2.01009L28.572 1.24582C28.4229 0.658487 27.9845 0.214357 27.3993 0.0577989C26.8144 -0.0986815 26.2133 0.0670174 25.7912 0.500913L22.862 3.51084L19.9322 0.501069C19.5102 0.0670174 18.909 -0.0986815 18.3241 0.0577989C17.7389 0.214357 17.3004 0.658487 17.1513 1.24605L16.1195 5.31712L12.077 4.17527C11.4944 4.0109 10.8908 4.16832 10.4626 4.59643C10.0345 5.02455 9.87704 5.62813 10.0416 6.211L11.184 10.2533L7.11203 11.2852C6.52509 11.4342 6.0812 11.8723 5.92448 12.4572C5.76777 13.0421 5.93323 13.6435 6.36713 14.066L9.37705 16.9953L7.11734 19.1951H0.728989C0.405403 19.1951 0.143066 19.4575 0.143066 19.781C0.143066 20.1046 0.405403 20.367 0.728989 20.367H7.56788C7.72209 20.367 7.84756 20.4924 7.84756 20.6467V30.1863C7.27429 30.8363 6.8386 31.6168 6.59431 32.4873C6.50689 32.7988 6.6886 33.1223 7.00016 33.2098C7.05312 33.2246 7.10633 33.2317 7.15875 33.2317C7.41476 33.2317 7.64999 33.0625 7.72256 32.8039C8.29387 30.7678 10.1706 29.3457 12.2864 29.3457C13.3855 29.3457 14.4339 29.7218 15.2774 30.4098L12.4017 33.2855L11.5307 32.4146C11.2169 32.1007 10.7997 31.9279 10.3559 31.9279C9.91196 31.9279 9.49478 32.1007 9.18104 32.4146C8.86722 32.7284 8.69441 33.1456 8.69441 33.5894C8.69441 34.0333 8.86722 34.4504 9.18104 34.7643L11.2268 36.81C11.5406 37.1238 11.9578 37.2966 12.4017 37.2966C12.8456 37.2966 13.2629 37.1238 13.5766 36.81L16.9791 33.4074C17.0112 33.6316 17.0278 33.8587 17.0278 34.087C17.0278 36.7013 14.9008 38.8283 12.2865 38.8283C10.1495 38.8283 8.26786 37.3889 7.71084 35.3278C7.62639 35.0154 7.30452 34.8305 6.99235 34.915C6.67993 34.9995 6.49517 35.3211 6.57954 35.6335C6.71165 36.1224 6.90383 36.583 7.14625 37.0088H0.728989C0.405403 37.0088 0.143066 37.2712 0.143066 37.5947C0.143066 37.9183 0.405403 38.1807 0.728989 38.1807H7.56788C7.70545 38.1807 7.83896 38.1602 7.96787 38.123C9.06042 39.2895 10.6103 40.0001 12.2865 40.0001C14.1596 40.0001 15.8309 39.1237 16.9151 37.7604C17.5058 38.0361 18.1534 38.1809 18.8089 38.1809H28.4406C29.963 38.1809 31.2017 36.9423 31.2017 35.4199C31.2017 34.6978 30.923 34.0395 30.4675 33.5469C31.3752 33.0975 32.0006 32.1614 32.0006 31.0819C32.0006 30.3309 31.6979 29.6493 31.2081 29.1527C31.2184 29.1471 31.228 29.1408 31.2381 29.1351L33.6459 29.8149C33.7983 29.858 33.9521 29.8792 34.1039 29.8792C34.5322 29.8792 34.9441 29.7109 35.2603 29.3949C35.6888 28.9668 35.8464 28.3632 35.6818 27.7801L34.5392 23.7376L38.6107 22.7052C39.198 22.5567 39.6423 22.1187 39.799 21.5337C39.956 20.9487 39.7903 20.3473 39.3562 19.9252ZM12.7478 35.9813C12.6554 36.0737 12.5325 36.1245 12.4017 36.1245C12.2708 36.1245 12.1479 36.0736 12.0554 35.9812L10.0095 33.9354C9.91704 33.8429 9.86618 33.72 9.86618 33.5892C9.86618 33.4584 9.91712 33.3355 10.0097 33.2429C10.1021 33.1504 10.2251 33.0995 10.3559 33.0995C10.4866 33.0995 10.6096 33.1505 10.7021 33.243L11.9874 34.5283C12.2162 34.7571 12.5872 34.7571 12.8159 34.5283L17.2925 30.0518C17.4834 29.8609 17.794 29.8609 17.985 30.0517C18.0775 30.1442 18.1284 30.2672 18.1284 30.398C18.1284 30.5287 18.0775 30.6516 17.985 30.7441L12.7478 35.9813Z" fill="black"/>
</svg>
